<svg width="40" height="40" viewBox="0 0 40 40" fill="none" xmlns="http://www.w3.org/2000/svg">
<g clip-path="url(#clip0_16_185)">
<path d="M28.4785 9.396C28.132 8.76545 27.6194 8.24187 26.9963 7.88214C26.3732 7.52241 25.6635 7.34027 24.9442 7.3555L14.2033 7.58421C13.5265 7.59854 12.8649 7.78713 12.2822 8.13175C11.6995 8.47638 11.2156 8.9654 10.877 9.55162L6.38999 17.3233C6.0516 17.9096 5.87007 18.5733 5.86295 19.2502C5.85583 19.9271 6.02335 20.5944 6.34935 21.1877L11.5217 30.604C11.8682 31.2345 12.3808 31.7581 13.0038 32.1178C13.6269 32.4775 14.3366 32.6597 15.056 32.6445L25.7968 32.4157C26.4736 32.4014 27.1353 32.2128 27.718 31.8682C28.3006 31.5236 28.7846 31.0345 29.1232 30.4483L33.6102 22.6766C33.9486 22.0903 34.1301 21.4267 34.1372 20.7497C34.1443 20.0728 33.9768 19.4055 33.6508 18.8122L28.4785 9.396Z" fill="#FAD20C"/>
<path d="M29.2278 22.4432C29.203 22.4924 29.1715 22.5389 29.1317 22.5802L25.596 26.2368C25.4178 26.421 25.1375 26.461 24.915 26.3341L18.4861 22.6655C18.4852 22.665 18.4845 22.6646 18.4836 22.6641L12.0734 18.9631C11.8504 18.8344 11.7437 18.5703 11.8148 18.3228L13.2231 13.4163C13.2393 13.3597 13.2646 13.3078 13.2959 13.2607C12.9578 12.8919 12.8804 12.3316 13.1436 11.8758C13.4682 11.3135 14.1898 11.1201 14.7522 11.4448C15.3145 11.7695 15.5079 12.491 15.1832 13.0534C15.0003 13.3701 14.6916 13.5696 14.3564 13.6256L14.9159 15.7456C15.0573 16.2814 15.4136 16.7476 15.8935 17.0246C16.461 17.3523 17.1576 17.3952 17.759 17.1404L21.6389 15.4968C21.5608 15.2057 21.5937 14.8847 21.756 14.6035C22.0807 14.0412 22.8022 13.8478 23.3646 14.1725C23.9269 14.4972 24.1203 15.2187 23.7956 15.7811C23.6381 16.0538 23.387 16.2389 23.1062 16.321C23.1063 16.3221 23.1067 16.3232 23.1067 16.3243L23.6028 20.505C23.6802 21.1575 24.0661 21.7431 24.6351 22.0717C25.1195 22.3513 25.6838 22.4257 26.224 22.2809L28.3472 21.712C28.2232 21.3909 28.2394 21.0188 28.4245 20.6982C28.7491 20.1359 29.4707 19.9425 30.0331 20.2672C30.5954 20.5919 30.7887 21.3135 30.4641 21.8758C30.208 22.3194 29.7049 22.532 29.2278 22.4432ZM24.3822 28.0984C24.537 27.8303 24.4451 27.4873 24.1769 27.3325L11.6155 20.0801C11.3473 19.9253 11.0044 20.0172 10.8495 20.2854L10.1766 21.4509C10.0218 21.719 10.1137 22.062 10.3819 22.2169L22.9433 29.4692C23.2115 29.624 23.5545 29.5321 23.7093 29.2639L24.3822 28.0984Z" fill="#1A1C22" stroke="#1A1C22" stroke-width="0.0747664"/>
</g>
<defs>
<clipPath id="clip0_16_185">
<rect width="28" height="28" fill="white" transform="translate(14.8757 0.87561) rotate(30)"/>
</clipPath>
</defs>
</svg>
