<svg width="24" height="24" viewBox="0 0 24 24" fill="none" xmlns="http://www.w3.org/2000/svg">
<path fill-rule="evenodd" clip-rule="evenodd" d="M9.71638 2.67121C10.3677 2.55595 11.108 2.48982 11.8832 2.48624C12.6584 2.48264 13.4666 2.54155 14.2456 2.67121C15.4761 2.8763 16.5128 3.79942 16.5128 5.02829V9.34607C16.5128 10.6122 15.5063 11.6503 14.2456 11.6503H9.71638C8.17861 11.6503 6.88366 12.9705 6.88366 14.4672V16.5389H5.3246C4.00676 16.5389 3.237 15.5823 2.91468 14.2399C2.47987 12.4365 2.49834 11.3587 2.91468 9.63146C3.27561 8.12462 4.42955 7.33252 5.7474 7.33252H7.44914H11.9836V6.75646H7.44914V5.02829C7.44914 3.71976 7.79753 3.01021 9.71638 2.67121ZM10.2819 4.7429C10.2819 4.26492 9.89937 3.87618 9.43099 3.87618C8.96093 3.87618 8.58011 4.26492 8.58012 4.7429C8.58012 5.21919 8.96093 5.60435 9.43099 5.60435C9.89937 5.60435 10.2819 5.2192 10.2819 4.7429Z" fill="white"/>
<path fill-rule="evenodd" clip-rule="evenodd" d="M17.0783 7.33252V9.34607C17.0783 10.9072 15.7548 12.2211 14.2456 12.2211H9.71638C8.47576 12.2211 7.44914 13.2829 7.44914 14.5253V18.8431C7.44914 20.072 8.51773 20.7948 9.71638 21.1473C11.1517 21.5694 12.5282 21.6456 14.2456 21.1473C15.3871 20.8168 16.5128 20.1516 16.5128 18.8431V17.1149H11.9836V16.5389H16.5128H18.78C20.0979 16.5389 20.589 15.6196 21.0473 14.2399C21.5207 12.8195 21.5005 11.4536 21.0473 9.63146C20.7216 8.31954 20.0995 7.33252 18.78 7.33252H17.0783ZM15.3818 19.1285C15.3818 18.6522 15.001 18.267 14.5309 18.267C14.0626 18.267 13.6801 18.6522 13.6801 19.1285C13.6801 19.6065 14.0626 19.9952 14.5309 19.9952C15.001 19.9952 15.3818 19.6065 15.3818 19.1285Z" fill="white"/>
</svg>
